<svg width="34" height="24" viewBox="0 0 34 24" fill="none" xmlns="http://www.w3.org/2000/svg">
<path d="M32.2987 8.28221H27.5448C27.6372 9.15377 27.8617 10.0649 28.1786 10.9761H32.2987C32.8665 10.9761 33.3419 11.4383 33.3419 12.0061C33.3419 12.574 32.8665 13.0626 32.2987 13.0626L28.9577 13.0626C29.235 13.9737 29.4199 14.8717 29.5124 15.7565H32.2987C32.8533 15.7565 33.3419 16.2186 33.3419 16.7997C33.3419 17.3675 32.8665 17.8429 32.2987 17.8429H29.5256C29.3539 19.8633 28.588 21.6461 27.2674 22.8742C26.145 23.891 24.732 22.4516 25.8281 21.3951C26.6732 20.5236 27.175 19.2823 27.3203 17.8429H22.4739C22.6192 17.1694 22.7248 16.4299 22.804 15.7432H27.2939C27.2014 14.8717 26.9901 13.9737 26.66 13.0626H22.9625C22.9757 12.6796 22.9757 11.3591 22.9625 10.9761H25.8941C25.6036 10.0649 25.4187 9.16697 25.3395 8.28221L22.804 8.26901C22.7116 7.59553 22.6192 6.89565 22.4739 6.18256L25.3263 6.19576C25.5111 4.17534 26.277 2.39261 27.5844 1.16451C28.6936 0.1477 30.1198 1.58709 29.037 2.64352C28.1786 3.51507 27.6636 4.75638 27.5183 6.19576H32.2987C32.8665 6.19576 33.3419 6.65795 33.3419 7.22578C33.3419 7.79361 32.8665 8.28221 32.2987 8.28221ZM21.2326 12.0193C21.259 14.4227 21.0609 16.7469 20.4007 19.1238C19.6215 21.7253 18.1425 22.6629 15.0789 22.6629H14.379C6.89155 22.6629 0.249248 17.7637 0.249248 12.0193C0.249248 6.27499 6.89155 1.38901 14.379 1.38901H15.0789C18.1557 1.38901 19.6347 2.31338 20.4007 4.91484C21.0609 7.29181 21.259 9.61595 21.2326 12.0193ZM19.1065 12.0193C19.1197 9.33864 18.8952 7.41066 18.3538 5.50908C17.918 4.05649 17.0465 3.50187 15.0789 3.50187H14.379C8.11965 3.50187 2.37531 7.48989 2.37531 12.0193C2.37531 16.5488 8.11965 20.55 14.379 20.55L15.0789 20.55C17.0201 20.55 17.9048 20.0086 18.3538 18.5296C18.8952 16.628 19.1197 14.7 19.1065 12.0193Z" fill="white"/>
</svg>
