<svg width="22" height="32" viewBox="0 0 22 32" fill="none" xmlns="http://www.w3.org/2000/svg">
<path d="M10.6588 7.31808C8.75722 7.31808 7.26501 5.79946 7.26501 3.9243C7.26501 2.03593 8.75722 0.490899 10.6588 0.490899C12.5472 0.490899 14.0526 2.03593 14.0526 3.9243C14.0526 5.75984 12.5472 7.31808 10.6588 7.31808ZM15.8485 10.2629C15.2543 9.86672 14.594 9.51017 13.8413 9.23286L17.1294 5.58817C17.6709 4.98073 18.2651 4.98073 18.7273 5.39009C19.2291 5.82587 19.2687 6.44652 18.7537 7.02756L15.8485 10.2629ZM4.09572 20.0481L3.83162 17.5654C3.69956 16.3902 3.64674 15.2413 3.64674 14.3962C3.64674 10.8571 6.26141 8.73105 10.6588 8.73105C11.8473 8.73105 12.8905 8.88952 13.8413 9.23286L4.09572 20.0481ZM17.2219 20.0481C15.0034 18.9652 12.8245 18.6747 10.6588 18.6747C9.82686 18.6747 8.98171 18.7275 8.14978 18.8596L15.8485 10.2629C17.037 11.2401 17.6576 12.6531 17.6576 14.3962C17.6576 15.2413 17.6048 16.3902 17.486 17.5654L17.2219 20.0481ZM0.464246 24.1153C0.0416745 23.6663 0.0548798 23.0193 0.569889 22.5439C1.65273 21.5139 2.78839 20.6555 4.09572 20.0481L4.35983 22.359C3.50148 22.7948 2.78839 23.3626 2.0753 24.0361C1.54709 24.5775 0.926435 24.5907 0.464246 24.1153ZM20.8533 24.1153C20.3912 24.5907 19.7705 24.5775 19.2423 24.0361C18.5292 23.3626 17.8161 22.7948 16.9578 22.359L17.2219 20.0481C18.5292 20.6555 19.6649 21.5139 20.7477 22.5439C21.2627 23.0325 21.2759 23.6663 20.8533 24.1153ZM6.90847 31.3915C5.97089 31.4839 5.2578 30.9161 5.13895 29.8068L4.35983 22.359C6.34064 21.2101 8.54594 20.7612 10.6588 20.7612C12.7717 20.7612 14.9637 21.2101 16.9578 22.359L16.1786 29.8068C16.0598 30.9161 15.3467 31.4839 14.4091 31.3915C13.498 31.2726 12.9037 30.6256 13.0094 29.4899L13.63 23.8248H7.68759L8.30824 29.4899C8.41388 30.6256 7.81964 31.2726 6.90847 31.3915Z" fill="#FF0707"/>
</svg>
