<svg width="770" height="53" viewBox="0 0 770 53" fill="none" xmlns="http://www.w3.org/2000/svg">
<mask id="path-1-outside-1_1144_901" maskUnits="userSpaceOnUse" x="717.457" y="4.85025" width="51" height="44" fill="black">
<rect fill="white" x="717.457" y="4.85025" width="51" height="44"/>
<path d="M766.086 26.5954C766.086 27.4194 765.727 28.4125 764.903 29.1942L748.127 44.8928C746.965 45.9703 745.993 46.4563 744.788 46.4563C743.014 46.4563 741.682 45.1463 741.682 43.3715V35.7441H725.244C721.822 35.7441 719.836 33.8003 719.836 30.4197V22.8556C719.836 19.4962 721.822 17.5312 725.244 17.5312H741.682V9.92493C741.682 8.15013 743.014 6.73452 744.81 6.73452C745.993 6.73452 746.838 7.22047 748.127 8.40368L764.903 23.9966C765.748 24.7995 766.086 25.7291 766.086 26.5954Z"/>
</mask>
<path d="M764.903 29.1942L766.012 30.3791L766.02 30.3714L764.903 29.1942ZM748.127 44.8928L749.23 46.0826L749.235 46.0776L748.127 44.8928ZM741.682 35.7441H743.305V34.1214H741.682V35.7441ZM741.682 17.5312V19.1539H743.305V17.5312H741.682ZM748.127 8.40368L749.231 7.2151L749.224 7.20833L748.127 8.40368ZM764.903 23.9966L766.02 22.8201L766.014 22.8141L766.008 22.808L764.903 23.9966ZM764.463 26.5954C764.463 26.9748 764.287 27.5421 763.786 28.017L766.02 30.3714C767.167 29.2828 767.709 27.864 767.709 26.5954H764.463ZM763.794 28.0094L747.018 43.7079L749.235 46.0776L766.012 30.379L763.794 28.0094ZM747.023 43.7029C746.032 44.6227 745.435 44.8336 744.788 44.8336V48.079C746.55 48.079 747.898 47.318 749.23 46.0826L747.023 43.7029ZM744.788 44.8336C743.895 44.8336 743.305 44.2355 743.305 43.3715H740.06C740.06 46.0571 742.132 48.079 744.788 48.079V44.8336ZM743.305 43.3715V35.7441H740.06V43.3715H743.305ZM741.682 34.1214H725.244V37.3668H741.682V34.1214ZM725.244 34.1214C723.835 34.1214 722.937 33.726 722.394 33.1923C721.855 32.6626 721.458 31.7925 721.458 30.4197H718.213C718.213 32.4274 718.809 34.2196 720.119 35.5069C721.425 36.7903 723.231 37.3668 725.244 37.3668V34.1214ZM721.458 30.4197V22.8556H718.213V30.4197H721.458ZM721.458 22.8556C721.458 21.4957 721.854 20.6235 722.396 20.0893C722.941 19.552 723.84 19.1539 725.244 19.1539V15.9086C723.226 15.9086 721.421 16.4929 720.117 17.778C718.81 19.0661 718.213 20.8561 718.213 22.8556H721.458ZM725.244 19.1539H741.682V15.9086H725.244V19.1539ZM743.305 17.5312V9.92494H740.06V17.5312H743.305ZM743.305 9.92494C743.305 8.99599 743.959 8.35719 744.81 8.35719V5.11184C742.068 5.11184 740.06 7.30428 740.06 9.92494H743.305ZM744.81 8.35719C745.373 8.35719 745.833 8.50107 747.029 9.59902L749.224 7.20833C747.842 5.93988 746.612 5.11184 744.81 5.11184V8.35719ZM747.022 9.59223L763.798 25.1851L766.008 22.808L749.231 7.21512L747.022 9.59223ZM763.785 25.173C764.31 25.6721 764.463 26.1775 764.463 26.5954H767.709C767.709 25.2807 767.185 23.9269 766.02 22.8201L763.785 25.173Z" fill="white" mask="url(#path-1-outside-1_1144_901)"/>
<path d="M23.3786 5.98819C25.6721 5.98819 27.3171 7.79611 27.3171 9.99014V16.7851H42.944C44.8087 16.7851 46.3876 17.3227 47.5016 18.4208C48.6172 19.5205 49.1638 21.0812 49.1638 22.9208V30.4853C49.1637 32.334 48.6175 33.8952 47.5007 34.9931C46.3856 36.089 44.8064 36.621 42.944 36.621H27.3171V43.4364C27.3171 45.6593 25.6435 47.3329 23.4206 47.3329C21.9185 47.3328 20.7584 46.7108 19.5095 45.5526L19.5075 45.5507L2.73114 29.8515L2.72723 29.8476C1.74174 28.9125 1.29084 27.7072 1.29071 26.661C1.29071 25.5706 1.72132 24.4283 2.72626 23.4735L2.73309 23.4677L19.5095 7.87491L19.5124 7.871C20.8476 6.64521 21.8858 5.98823 23.3786 5.98819Z" stroke="white" stroke-width="1.62268"/>
</svg>
