<svg width="471" height="322" viewBox="0 0 471 322" fill="none" xmlns="http://www.w3.org/2000/svg">
<rect x="233.566" y="0.0836792" width="4.51389" height="22.5694" rx="2.25694" fill="#D9D9D9"/>
<rect x="234.641" y="128.815" width="1.62268" height="9.73606" rx="0.811338" fill="#942A24"/>
<rect x="242.621" y="129.066" width="1.62268" height="4.86803" rx="0.811338" transform="rotate(4.5 242.621 129.066)" fill="#AEAEAE"/>
<rect x="250.556" y="129.942" width="1.62268" height="4.86803" rx="0.811338" transform="rotate(9 250.556 129.942)" fill="#AEAEAE"/>
<rect x="258.4" y="131.437" width="1.62268" height="4.86803" rx="0.811338" transform="rotate(13.5 258.4 131.437)" fill="#AEAEAE"/>
<rect x="266.102" y="133.542" width="1.62268" height="4.86803" rx="0.811338" transform="rotate(18 266.102 133.542)" fill="#AEAEAE"/>
<rect x="273.616" y="136.245" width="1.62268" height="4.86803" rx="0.811338" transform="rotate(22.5 273.616 136.245)" fill="#AEAEAE"/>
<rect x="280.895" y="139.531" width="1.62268" height="4.86803" rx="0.811338" transform="rotate(27 280.895 139.531)" fill="#AEAEAE"/>
<rect x="287.892" y="143.378" width="1.62268" height="4.86803" rx="0.811338" transform="rotate(31.5 287.892 143.378)" fill="#AEAEAE"/>
<rect x="294.565" y="147.76" width="1.62268" height="4.86803" rx="0.811338" transform="rotate(36 294.565 147.76)" fill="#AEAEAE"/>
<rect x="300.876" y="152.654" width="1.62268" height="4.86803" rx="0.811338" transform="rotate(40.5 300.876 152.654)" fill="#AEAEAE"/>
<rect x="306.782" y="158.025" width="1.62268" height="4.86803" rx="0.811338" transform="rotate(45 306.782 158.025)" fill="#AEAEAE"/>
<rect x="312.248" y="163.846" width="1.62268" height="4.86803" rx="0.811338" transform="rotate(49.5 312.248 163.846)" fill="#AEAEAE"/>
<rect x="317.241" y="170.077" width="1.62268" height="4.86803" rx="0.811338" transform="rotate(54 317.241 170.077)" fill="#AEAEAE"/>
<rect x="321.731" y="176.68" width="1.62268" height="4.86803" rx="0.811338" transform="rotate(58.5 321.731 176.68)" fill="#AEAEAE"/>
<rect x="325.689" y="183.615" width="1.62268" height="4.86803" rx="0.811338" transform="rotate(63 325.689 183.615)" fill="#AEAEAE"/>
<rect x="329.088" y="190.84" width="1.62268" height="4.86803" rx="0.811338" transform="rotate(67.5 329.088 190.84)" fill="#AEAEAE"/>
<rect x="331.911" y="198.308" width="1.62268" height="4.86803" rx="0.811338" transform="rotate(72 331.911 198.308)" fill="#AEAEAE"/>
<rect x="334.141" y="205.976" width="1.62268" height="4.86803" rx="0.811338" transform="rotate(76.5 334.141 205.976)" fill="#AEAEAE"/>
<rect x="335.76" y="213.794" width="1.62268" height="4.86803" rx="0.811338" transform="rotate(81 335.76 213.794)" fill="#AEAEAE"/>
<rect x="336.763" y="221.716" width="1.62268" height="4.86803" rx="0.811338" transform="rotate(85.5 336.763 221.716)" fill="#AEAEAE"/>
<rect x="337.139" y="229.694" width="1.62268" height="4.86803" rx="0.811338" transform="rotate(90 337.139 229.694)" fill="#AEAEAE"/>
<rect x="336.89" y="237.673" width="1.62268" height="4.86803" rx="0.811338" transform="rotate(94.5 336.89 237.673)" fill="#AEAEAE"/>
<rect x="336.014" y="245.609" width="1.62268" height="4.86803" rx="0.811338" transform="rotate(99 336.014 245.609)" fill="#AEAEAE"/>
<rect x="334.519" y="253.452" width="1.62268" height="4.86803" rx="0.811338" transform="rotate(103.5 334.519 253.452)" fill="#AEAEAE"/>
<rect x="332.411" y="261.155" width="1.62268" height="4.86803" rx="0.811338" transform="rotate(108 332.411 261.155)" fill="#AEAEAE"/>
<rect x="138.992" y="262.698" width="1.62268" height="4.86803" rx="0.811338" transform="rotate(-108 138.992 262.698)" fill="#AEAEAE"/>
<rect x="136.763" y="255.032" width="1.62268" height="4.86803" rx="0.811338" transform="rotate(-103.5 136.763 255.032)" fill="#AEAEAE"/>
<rect x="135.143" y="247.212" width="1.62268" height="4.86803" rx="0.811338" transform="rotate(-99 135.143 247.212)" fill="#AEAEAE"/>
<rect x="134.14" y="239.292" width="1.62268" height="4.86803" rx="0.811338" transform="rotate(-94.5 134.14 239.292)" fill="#AEAEAE"/>
<rect x="133.764" y="231.315" width="1.62268" height="4.86803" rx="0.811338" transform="rotate(-90 133.764 231.315)" fill="#AEAEAE"/>
<rect x="134.013" y="223.335" width="1.62268" height="4.86803" rx="0.811338" transform="rotate(-85.5 134.013 223.335)" fill="#AEAEAE"/>
<rect x="134.887" y="215.397" width="1.62268" height="4.86803" rx="0.811338" transform="rotate(-81 134.887 215.397)" fill="#AEAEAE"/>
<rect x="136.384" y="207.554" width="1.62268" height="4.86803" rx="0.811338" transform="rotate(-76.5 136.384 207.554)" fill="#AEAEAE"/>
<rect x="138.489" y="199.853" width="1.62268" height="4.86803" rx="0.811338" transform="rotate(-72 138.489 199.853)" fill="#AEAEAE"/>
<rect x="141.195" y="192.34" width="1.62268" height="4.86803" rx="0.811338" transform="rotate(-67.5 141.195 192.34)" fill="#AEAEAE"/>
<rect x="144.478" y="185.062" width="1.62268" height="4.86803" rx="0.811338" transform="rotate(-63 144.478 185.062)" fill="#AEAEAE"/>
<rect x="148.323" y="178.064" width="1.62268" height="4.86803" rx="0.811338" transform="rotate(-58.5 148.323 178.064)" fill="#AEAEAE"/>
<rect x="152.707" y="171.39" width="1.62268" height="4.86803" rx="0.811338" transform="rotate(-54 152.707 171.39)" fill="#AEAEAE"/>
<rect x="157.601" y="165.08" width="1.62268" height="4.86803" rx="0.811338" transform="rotate(-49.5 157.601 165.08)" fill="#AEAEAE"/>
<rect x="162.975" y="159.174" width="1.62268" height="4.86803" rx="0.811338" transform="rotate(-45 162.975 159.174)" fill="#AEAEAE"/>
<rect x="168.793" y="153.706" width="1.62268" height="4.86803" rx="0.811338" transform="rotate(-40.5 168.793 153.706)" fill="#AEAEAE"/>
<rect x="175.025" y="148.713" width="1.62268" height="4.86803" rx="0.811338" transform="rotate(-36 175.025 148.713)" fill="#AEAEAE"/>
<rect x="181.627" y="144.225" width="1.62268" height="4.86803" rx="0.811338" transform="rotate(-31.5 181.627 144.225)" fill="#AEAEAE"/>
<rect x="188.562" y="140.267" width="1.62268" height="4.86803" rx="0.811338" transform="rotate(-27 188.562 140.267)" fill="#AEAEAE"/>
<rect x="195.788" y="136.868" width="1.62268" height="4.86803" rx="0.811338" transform="rotate(-22.5 195.788 136.868)" fill="#AEAEAE"/>
<rect x="203.255" y="134.045" width="1.62268" height="4.86803" rx="0.811338" transform="rotate(-18 203.255 134.045)" fill="#AEAEAE"/>
<rect x="210.924" y="131.815" width="1.62268" height="4.86803" rx="0.811338" transform="rotate(-13.5 210.924 131.815)" fill="#AEAEAE"/>
<rect x="218.742" y="130.195" width="1.62268" height="4.86803" rx="0.811338" transform="rotate(-9 218.742 130.195)" fill="#AEAEAE"/>
<rect x="226.664" y="129.193" width="1.62268" height="4.86803" rx="0.811338" transform="rotate(-4.5 226.664 129.193)" fill="#AEAEAE"/>
<rect x="266.103" y="133.543" width="1.62268" height="9.73606" rx="0.811338" transform="rotate(18 266.103 133.543)" fill="#942A24"/>
<rect x="294.566" y="147.759" width="1.62268" height="9.73606" rx="0.811338" transform="rotate(36 294.566 147.759)" fill="#942A24"/>
<rect x="317.241" y="170.076" width="1.62268" height="9.73606" rx="0.811338" transform="rotate(54 317.241 170.076)" fill="#942A24"/>
<rect x="331.911" y="198.309" width="1.62268" height="9.73606" rx="0.811338" transform="rotate(72 331.911 198.309)" fill="#942A24"/>
<rect x="337.139" y="229.692" width="1.62268" height="9.73606" rx="0.811338" transform="rotate(90 337.139 229.692)" fill="#942A24"/>
<rect x="332.414" y="261.154" width="1.62268" height="9.73606" rx="0.811338" transform="rotate(108 332.414 261.154)" fill="#942A24"/>
<rect x="138.993" y="262.699" width="1.62268" height="9.73606" rx="0.811338" transform="rotate(-108 138.993 262.699)" fill="#942A24"/>
<rect x="133.764" y="231.314" width="1.62268" height="9.73606" rx="0.811338" transform="rotate(-90 133.764 231.314)" fill="#942A24"/>
<rect x="138.49" y="199.852" width="1.62268" height="9.73606" rx="0.811338" transform="rotate(-72 138.49 199.852)" fill="#942A24"/>
<rect x="152.707" y="171.389" width="1.62268" height="9.73606" rx="0.811338" transform="rotate(-54 152.707 171.389)" fill="#942A24"/>
<rect x="175.025" y="148.713" width="1.62268" height="9.73606" rx="0.811338" transform="rotate(-36 175.025 148.713)" fill="#942A24"/>
<rect x="203.258" y="134.044" width="1.62268" height="9.73606" rx="0.811338" transform="rotate(-18 203.258 134.044)" fill="#942A24"/>
<rect x="248.566" y="0.428345" width="3.6854" height="12.5304" rx="1.8427" transform="rotate(3.6 248.566 0.428345)" fill="#2D5E8B"/>
<rect x="263.19" y="1.69418" width="3.6854" height="12.5304" rx="1.8427" transform="rotate(7.2 263.19 1.69418)" fill="#2D5E8B"/>
<rect x="277.707" y="3.87613" width="3.6854" height="12.5304" rx="1.8427" transform="rotate(10.8 277.707 3.87613)" fill="#2D5E8B"/>
<rect x="292.096" y="6.9772" width="3.6854" height="12.5304" rx="1.8427" transform="rotate(14.4 292.096 6.9772)" fill="#2D5E8B"/>
<rect x="320.073" y="15.8249" width="3.6854" height="12.5304" rx="1.8427" transform="rotate(21.6 320.073 15.8249)" fill="#2D5E8B"/>
<rect x="333.591" y="21.5482" width="3.6854" height="12.5304" rx="1.8427" transform="rotate(25.2 333.591 21.5482)" fill="#2D5E8B"/>
<rect x="346.722" y="28.1092" width="3.6854" height="12.5304" rx="1.8427" transform="rotate(28.8 346.722 28.1092)" fill="#2D5E8B"/>
<rect x="359.416" y="35.4816" width="3.6854" height="12.5304" rx="1.8427" transform="rotate(32.4 359.416 35.4816)" fill="#2D5E8B"/>
<rect x="383.29" y="52.5413" width="3.6854" height="12.5304" rx="1.8427" transform="rotate(39.6 383.29 52.5413)" fill="#2D5E8B"/>
<rect x="394.378" y="62.1612" width="3.6854" height="12.5304" rx="1.8427" transform="rotate(43.2 394.378 62.1612)" fill="#2D5E8B"/>
<rect x="404.838" y="72.4588" width="3.6854" height="12.5304" rx="1.8427" transform="rotate(46.8 404.838 72.4588)" fill="#2D5E8B"/>
<rect x="414.632" y="83.3933" width="3.6854" height="12.5304" rx="1.8427" transform="rotate(50.4 414.632 83.3933)" fill="#2D5E8B"/>
<rect x="432.066" y="106.995" width="3.6854" height="12.5304" rx="1.8427" transform="rotate(57.6 432.066 106.995)" fill="#2D5E8B"/>
<rect x="439.638" y="119.571" width="3.6854" height="12.5304" rx="1.8427" transform="rotate(61.2 439.638 119.571)" fill="#2D5E8B"/>
<rect x="446.406" y="132.597" width="3.6854" height="12.5304" rx="1.8427" transform="rotate(64.8 446.406 132.597)" fill="#2D5E8B"/>
<rect x="452.341" y="146.023" width="3.6854" height="12.5304" rx="1.8427" transform="rotate(68.4 452.341 146.023)" fill="#2D5E8B"/>
<rect x="461.628" y="173.858" width="3.6854" height="12.5304" rx="1.8427" transform="rotate(75.6 461.628 173.858)" fill="#2D5E8B"/>
<rect x="464.943" y="188.157" width="3.6854" height="12.5304" rx="1.8427" transform="rotate(79.2 464.943 188.157)" fill="#2D5E8B"/>
<rect x="467.354" y="202.637" width="3.6854" height="12.5304" rx="1.8427" transform="rotate(82.8 467.354 202.637)" fill="#2D5E8B"/>
<rect x="468.85" y="217.239" width="3.6854" height="12.5304" rx="1.8427" transform="rotate(86.4 468.85 217.239)" fill="#2D5E8B"/>
<rect x="469.082" y="246.582" width="3.6854" height="12.5304" rx="1.8427" transform="rotate(93.6 469.082 246.582)" fill="#2D5E8B"/>
<rect x="467.816" y="261.205" width="3.6854" height="12.5304" rx="1.8427" transform="rotate(97.2 467.816 261.205)" fill="#2D5E8B"/>
<rect x="465.634" y="275.722" width="3.6854" height="12.5304" rx="1.8427" transform="rotate(100.8 465.634 275.722)" fill="#2D5E8B"/>
<rect x="462.546" y="290.076" width="3.6854" height="12.5304" rx="1.8427" transform="rotate(104.4 462.546 290.076)" fill="#2D5E8B"/>
<rect x="9.87894" y="293.63" width="3.6854" height="12.5304" rx="1.8427" transform="rotate(-104.4 9.87894 293.63)" fill="#2D5E8B"/>
<rect x="6.56387" y="279.33" width="3.6854" height="12.5304" rx="1.8427" transform="rotate(-100.8 6.56387 279.33)" fill="#2D5E8B"/>
<rect x="4.15286" y="264.85" width="3.6854" height="12.5304" rx="1.8427" transform="rotate(-97.2 4.15286 264.85)" fill="#2D5E8B"/>
<rect x="2.6571" y="250.247" width="3.6854" height="12.5304" rx="1.8427" transform="rotate(-93.6 2.6571 250.247)" fill="#2D5E8B"/>
<rect x="2.4252" y="220.906" width="3.6854" height="12.5304" rx="1.8427" transform="rotate(-86.4 2.4252 220.906)" fill="#2D5E8B"/>
<rect x="3.69128" y="206.281" width="3.6854" height="12.5304" rx="1.8427" transform="rotate(-82.8 3.69128 206.281)" fill="#2D5E8B"/>
<rect x="5.87302" y="191.764" width="3.6854" height="12.5304" rx="1.8427" transform="rotate(-79.2 5.87302 191.764)" fill="#2D5E8B"/>
<rect x="8.96277" y="177.415" width="3.6854" height="12.5304" rx="1.8427" transform="rotate(-75.6 8.96277 177.415)" fill="#2D5E8B"/>
<rect x="17.8086" y="149.437" width="3.6854" height="12.5304" rx="1.8427" transform="rotate(-68.4 17.8086 149.437)" fill="#2D5E8B"/>
<rect x="23.5328" y="135.919" width="3.6854" height="12.5304" rx="1.8427" transform="rotate(-64.8 23.5328 135.919)" fill="#2D5E8B"/>
<rect x="30.0929" y="122.788" width="3.6854" height="12.5304" rx="1.8427" transform="rotate(-61.2 30.0929 122.788)" fill="#2D5E8B"/>
<rect x="37.4654" y="110.095" width="3.6854" height="12.5304" rx="1.8427" transform="rotate(-57.6 37.4654 110.095)" fill="#2D5E8B"/>
<rect x="54.5259" y="86.2203" width="3.6854" height="12.5304" rx="1.8427" transform="rotate(-50.4 54.5259 86.2203)" fill="#2D5E8B"/>
<rect x="64.1458" y="75.1335" width="3.6854" height="12.5304" rx="1.8427" transform="rotate(-46.8 64.1458 75.1335)" fill="#2D5E8B"/>
<rect x="74.4426" y="64.6723" width="3.6854" height="12.5304" rx="1.8427" transform="rotate(-43.2 74.4426 64.6723)" fill="#2D5E8B"/>
<rect x="85.377" y="54.8784" width="3.6854" height="12.5304" rx="1.8427" transform="rotate(-39.6 85.377 54.8784)" fill="#2D5E8B"/>
<rect x="108.98" y="37.4439" width="3.6854" height="12.5304" rx="1.8427" transform="rotate(-32.4 108.98 37.4439)" fill="#2D5E8B"/>
<rect x="121.556" y="29.8723" width="3.6854" height="12.5304" rx="1.8427" transform="rotate(-28.8 121.556 29.8723)" fill="#2D5E8B"/>
<rect x="134.582" y="23.1057" width="3.6854" height="12.5304" rx="1.8427" transform="rotate(-25.2 134.582 23.1057)" fill="#2D5E8B"/>
<rect x="148.007" y="17.1693" width="3.6854" height="12.5304" rx="1.8427" transform="rotate(-21.6 148.007 17.1693)" fill="#2D5E8B"/>
<rect x="175.841" y="7.88208" width="3.6854" height="12.5304" rx="1.8427" transform="rotate(-14.4 175.841 7.88208)" fill="#2D5E8B"/>
<rect x="190.141" y="4.56705" width="3.6854" height="12.5304" rx="1.8427" transform="rotate(-10.8 190.141 4.56705)" fill="#2D5E8B"/>
<rect x="204.621" y="2.15683" width="3.6854" height="12.5304" rx="1.8427" transform="rotate(-7.2 204.621 2.15683)" fill="#2D5E8B"/>
<rect x="219.223" y="0.660248" width="3.6854" height="12.5304" rx="1.8427" transform="rotate(-3.6 219.223 0.660248)" fill="#2D5E8B"/>
<rect x="306.238" y="10.8796" width="4.51389" height="22.5694" rx="2.25694" transform="rotate(18 306.238 10.8796)" fill="#D9D9D9"/>
<rect x="372.026" y="43.6088" width="4.51389" height="22.5694" rx="2.25694" transform="rotate(36 372.026 43.6088)" fill="#D9D9D9"/>
<rect x="424.482" y="95.0655" width="4.51389" height="22.5694" rx="2.25694" transform="rotate(54 424.482 95.0655)" fill="#D9D9D9"/>
<rect x="458.467" y="160.213" width="4.51389" height="22.5694" rx="2.25694" transform="rotate(72 458.467 160.213)" fill="white"/>
<rect x="470.66" y="232.675" width="4.51389" height="22.5694" rx="2.25694" transform="rotate(90 470.66 232.675)" fill="white"/>
<rect x="459.863" y="305.357" width="4.51389" height="22.5694" rx="2.25694" transform="rotate(108 459.863 305.357)" fill="white"/>
<rect x="13.1677" y="309.651" width="4.51389" height="22.5694" rx="2.25694" transform="rotate(-108 13.1677 309.651)" fill="#D9D9D9"/>
<rect x="0.974915" y="237.189" width="4.51389" height="22.5694" rx="2.25694" transform="rotate(-90 0.974915 237.189)" fill="#D9D9D9"/>
<rect x="11.7728" y="164.506" width="4.51389" height="22.5694" rx="2.25694" transform="rotate(-72 11.7728 164.506)" fill="#D9D9D9"/>
<rect x="44.501" y="98.7171" width="4.51389" height="22.5694" rx="2.25694" transform="rotate(-54 44.501 98.7171)" fill="#D9D9D9"/>
<rect x="95.9567" y="46.2619" width="4.51389" height="22.5694" rx="2.25694" transform="rotate(-36 95.9567 46.2619)" fill="#D9D9D9"/>
<rect x="161.105" y="12.2754" width="4.51389" height="22.5694" rx="2.25694" transform="rotate(-18 161.105 12.2754)" fill="#D9D9D9"/>
</svg>
