<svg width="170" height="117" viewBox="0 0 170 117" fill="none" xmlns="http://www.w3.org/2000/svg">
<path d="M77.363 13.1747C76.8678 13.1747 76.5245 12.8314 76.5245 12.3164V5.16566H76.4914L74.953 6.23529C74.7879 6.35414 74.6559 6.40036 74.471 6.40036C74.1145 6.40036 73.857 6.14286 73.857 5.7665C73.857 5.5024 73.9626 5.30431 74.2465 5.10623L76.1943 3.73948C76.6169 3.44236 76.881 3.38293 77.2375 3.38293C77.8384 3.38293 78.2015 3.74608 78.2015 4.33372V12.3164C78.2015 12.8314 77.8582 13.1747 77.363 13.1747ZM81.2256 13.0427C80.6974 13.0427 80.42 12.7521 80.42 12.323C80.42 11.9928 80.5323 11.7948 80.8954 11.4514L83.8072 8.56604C85.0221 7.36435 85.3258 6.88236 85.3258 6.15606C85.3258 5.30431 84.6722 4.69026 83.7544 4.69026C82.896 4.69026 82.2952 5.12604 81.9585 5.98439C81.7868 6.32773 81.5887 6.506 81.1992 6.506C80.737 6.506 80.4597 6.22209 80.4597 5.79952C80.4597 5.67407 80.4795 5.55522 80.5125 5.44297C80.77 4.41295 81.9122 3.32351 83.7676 3.32351C85.6758 3.32351 86.9897 4.45257 86.9897 6.05042C86.9897 7.16627 86.4549 7.91898 84.8769 9.46401L82.6914 11.6165V11.6495H86.4945C86.9435 11.6495 87.2208 11.9268 87.2208 12.3494C87.2208 12.7654 86.9435 13.0427 86.4945 13.0427H81.2256ZM92.0012 13.2341C89.6506 13.2341 88.2508 11.326 88.2508 8.26892C88.2508 5.22508 89.6638 3.32351 92.0012 3.32351C94.3319 3.32351 95.7383 5.21188 95.7383 8.26232C95.7383 11.3128 94.3451 13.2341 92.0012 13.2341ZM92.0012 11.841C93.2887 11.841 94.0216 10.527 94.0216 8.26892C94.0216 6.03721 93.2755 4.71668 92.0012 4.71668C90.7202 4.71668 89.9675 6.04382 89.9675 8.26232C89.9675 10.5204 90.707 11.841 92.0012 11.841Z" fill="#0000FF"/>
<path d="M121.745 27.8438C121.25 27.8438 120.907 27.5004 120.907 26.9854V19.8347H120.874L119.335 20.9043C119.17 21.0232 119.038 21.0694 118.853 21.0694C118.497 21.0694 118.239 20.8119 118.239 20.4355C118.239 20.1714 118.345 19.9734 118.629 19.7753L120.576 18.4085C120.999 18.1114 121.263 18.052 121.62 18.052C122.22 18.052 122.584 18.4151 122.584 19.0028V26.9854C122.584 27.5004 122.24 27.8438 121.745 27.8438ZM128.526 27.9032C127.04 27.9032 125.865 27.1769 125.205 25.7837C124.855 25.0508 124.677 24.1396 124.677 23.0568C124.677 19.8809 126.129 17.9859 128.552 17.9859C130.005 17.9859 131.114 18.6198 131.59 19.5244C131.695 19.7158 131.742 19.8809 131.742 20.0658C131.742 20.4553 131.464 20.7525 131.015 20.7525C130.679 20.7525 130.467 20.594 130.203 20.2573C129.761 19.6498 129.252 19.3725 128.546 19.3725C127.106 19.3725 126.341 20.6996 126.308 22.8917V22.9908H126.341C126.717 22.1126 127.668 21.4524 128.962 21.4524C130.797 21.4524 132.085 22.7729 132.085 24.5754C132.085 26.51 130.586 27.9032 128.526 27.9032ZM128.5 26.5166C129.563 26.5166 130.408 25.6847 130.408 24.6415C130.414 23.5454 129.615 22.7663 128.519 22.7663C127.423 22.7663 126.598 23.5454 126.598 24.6084C126.598 25.6781 127.437 26.5166 128.5 26.5166ZM136.911 27.9032C134.561 27.9032 133.161 25.995 133.161 22.938C133.161 19.8941 134.574 17.9925 136.911 17.9925C139.242 17.9925 140.649 19.8809 140.649 22.9314C140.649 25.9818 139.255 27.9032 136.911 27.9032ZM136.911 26.51C138.199 26.51 138.932 25.1961 138.932 22.938C138.932 20.7062 138.186 19.3857 136.911 19.3857C135.631 19.3857 134.878 20.7129 134.878 22.9314C134.878 25.1895 135.617 26.51 136.911 26.51Z" fill="#0000FF"/>
<path d="M146.306 66.1147C145.778 66.1147 145.5 65.8242 145.5 65.3951C145.5 65.0649 145.612 64.8668 145.976 64.5235L148.887 61.6381C150.102 60.4364 150.406 59.9544 150.406 59.2281C150.406 58.3764 149.752 57.7623 148.835 57.7623C147.976 57.7623 147.375 58.1981 147.039 59.0565C146.867 59.3998 146.669 59.5781 146.279 59.5781C145.817 59.5781 145.54 59.2942 145.54 58.8716C145.54 58.7461 145.56 58.6273 145.593 58.5151C145.85 57.485 146.992 56.3956 148.848 56.3956C150.756 56.3956 152.07 57.5247 152.07 59.1225C152.07 60.2384 151.535 60.9911 149.957 62.5361L147.772 64.6886V64.7216H151.575C152.024 64.7216 152.301 64.9989 152.301 65.4215C152.301 65.8374 152.024 66.1147 151.575 66.1147H146.306ZM157.081 66.3062C154.731 66.3062 153.331 64.398 153.331 61.341C153.331 58.2972 154.744 56.3956 157.081 56.3956C159.412 56.3956 160.818 58.284 160.818 61.3344C160.818 64.3848 159.425 66.3062 157.081 66.3062ZM157.081 64.9131C158.369 64.9131 159.102 63.5991 159.102 61.341C159.102 59.1093 158.356 57.7888 157.081 57.7888C155.8 57.7888 155.048 59.1159 155.048 61.3344C155.048 63.5925 155.787 64.9131 157.081 64.9131ZM165.704 66.3062C163.354 66.3062 161.954 64.398 161.954 61.341C161.954 58.2972 163.367 56.3956 165.704 56.3956C168.035 56.3956 169.442 58.284 169.442 61.3344C169.442 64.3848 168.048 66.3062 165.704 66.3062ZM165.704 64.9131C166.992 64.9131 167.725 63.5991 167.725 61.341C167.725 59.1093 166.979 57.7888 165.704 57.7888C164.424 57.7888 163.671 59.1159 163.671 61.3344C163.671 63.5925 164.41 64.9131 165.704 64.9131Z" fill="#0000FF"/>
<path d="M146.958 113.584C146.429 113.584 146.152 113.294 146.152 112.864C146.152 112.534 146.264 112.336 146.628 111.993L149.539 109.107C150.754 107.906 151.058 107.424 151.058 106.697C151.058 105.846 150.404 105.232 149.486 105.232C148.628 105.232 148.027 105.667 147.691 106.526C147.519 106.869 147.321 107.047 146.931 107.047C146.469 107.047 146.192 106.763 146.192 106.341C146.192 106.215 146.212 106.097 146.245 105.984C146.502 104.954 147.644 103.865 149.5 103.865C151.408 103.865 152.722 104.994 152.722 106.592C152.722 107.708 152.187 108.46 150.609 110.005L148.423 112.158V112.191H152.227C152.676 112.191 152.953 112.468 152.953 112.891C152.953 113.307 152.676 113.584 152.227 113.584H146.958ZM159.272 113.716C158.803 113.716 158.46 113.412 158.46 112.878V111.755H154.703C154.089 111.755 153.686 111.366 153.686 110.798C153.686 110.428 153.791 110.118 154.056 109.642C154.722 108.447 155.805 106.816 156.948 105.139C157.568 104.215 157.984 103.924 158.684 103.924C159.562 103.924 160.084 104.387 160.084 105.179V110.355H160.751C161.2 110.355 161.47 110.646 161.47 111.055C161.47 111.471 161.2 111.755 160.744 111.755H160.084V112.878C160.084 113.412 159.747 113.716 159.272 113.716ZM158.486 110.395V105.35H158.46C156.948 107.516 156.003 108.942 155.231 110.349V110.395H158.486ZM166.053 113.776C163.702 113.776 162.302 111.867 162.302 108.81C162.302 105.766 163.715 103.865 166.053 103.865C168.383 103.865 169.79 105.753 169.79 108.804C169.79 111.854 168.397 113.776 166.053 113.776ZM166.053 112.382C167.34 112.382 168.073 111.068 168.073 108.81C168.073 106.579 167.327 105.258 166.053 105.258C164.772 105.258 164.019 106.585 164.019 108.804C164.019 111.062 164.758 112.382 166.053 112.382Z" fill="#0000FF"/>
<path d="M4.63511 113.776C2.28456 113.776 0.884787 111.867 0.884787 108.81C0.884787 105.766 2.29776 103.865 4.63511 103.865C6.96586 103.865 8.37223 105.753 8.37223 108.804C8.37223 111.854 6.97907 113.776 4.63511 113.776ZM4.63511 112.382C5.92264 112.382 6.65553 111.068 6.65553 108.81C6.65553 106.579 5.90943 105.258 4.63511 105.258C3.35419 105.258 2.60149 106.585 2.60149 108.804C2.60149 111.062 3.34099 112.382 4.63511 112.382Z" fill="#0000FF"/>
<path d="M11.5229 110.631C10.6519 110.631 9.99186 109.971 9.99186 109.114C9.99186 108.261 10.6519 107.601 11.5229 107.601C12.3849 107.601 13.0539 108.261 13.0539 109.114C13.0539 109.971 12.3849 110.631 11.5229 110.631ZM11.5229 109.823C11.9135 109.823 12.2143 109.509 12.2143 109.114C12.2143 108.714 11.909 108.409 11.5229 108.409C11.1457 108.409 10.8315 108.714 10.8315 109.114C10.8315 109.509 11.1457 109.823 11.5229 109.823ZM14.6568 114.052C14.2976 114.052 14.0776 113.832 14.0776 113.451V108.099C14.0776 107.722 14.2976 107.497 14.6568 107.497H17.7548C18.0736 107.497 18.2846 107.686 18.2846 107.987C18.2846 108.288 18.0691 108.476 17.7548 108.476H15.236V110.389H17.5213C17.8266 110.389 18.0287 110.568 18.0287 110.86C18.0287 111.152 17.8266 111.332 17.5213 111.332H15.236V113.451C15.236 113.832 15.0205 114.052 14.6568 114.052Z" fill="#0000FF"/>
<path d="M8.80133 66.2468C8.33254 66.2468 7.9892 65.9431 7.9892 65.4083V64.2858H4.23227C3.61822 64.2858 3.21546 63.8962 3.21546 63.3284C3.21546 62.9587 3.3211 62.6483 3.58521 62.1729C4.25208 60.9779 5.33492 59.347 6.47719 57.6699C7.09784 56.7455 7.51381 56.455 8.21369 56.455C9.09185 56.455 9.61346 56.9172 9.61346 57.7095V62.886H10.2803C10.7293 62.886 11 63.1766 11 63.5859C11 64.0019 10.7293 64.2858 10.2737 64.2858H9.61346V65.4083C9.61346 65.9431 9.27673 66.2468 8.80133 66.2468ZM8.01561 62.9256V57.8812H7.9892C6.47719 60.0469 5.533 61.4731 4.76049 62.8794V62.9256H8.01561ZM15.5823 66.3062C13.2317 66.3062 11.832 64.398 11.832 61.341C11.832 58.2972 13.2449 56.3956 15.5823 56.3956C17.913 56.3956 19.3194 58.284 19.3194 61.3344C19.3194 64.3848 17.9262 66.3062 15.5823 66.3062ZM15.5823 64.9131C16.8698 64.9131 17.6027 63.5991 17.6027 61.341C17.6027 59.1093 16.8566 57.7888 15.5823 57.7888C14.3014 57.7888 13.5487 59.1159 13.5487 61.3344C13.5487 63.5925 14.2882 64.9131 15.5823 64.9131Z" fill="#0000FF"/>
<path d="M34.92 27.9032C32.7345 27.9032 31.2093 26.7609 31.2093 25.1367C31.2093 23.902 32.0874 22.9578 33.3617 22.7003V22.6606C32.2657 22.3701 31.5526 21.558 31.5526 20.5346C31.5526 19.0688 32.9524 17.9925 34.92 17.9925C36.8876 17.9925 38.2807 19.0622 38.2807 20.5412C38.2807 21.5514 37.5743 22.3569 36.4782 22.6606V22.7003C37.7525 22.9644 38.6373 23.9086 38.6373 25.1367C38.6373 26.7675 37.0989 27.9032 34.92 27.9032ZM34.92 22.1192C35.9038 22.1192 36.6037 21.5382 36.6037 20.7062C36.6037 19.8611 35.9038 19.2801 34.92 19.2801C33.9296 19.2801 33.2363 19.8677 33.2363 20.7062C33.2363 21.5382 33.9296 22.1192 34.92 22.1192ZM34.92 26.6024C36.0622 26.6024 36.8678 25.9356 36.8678 25.0112C36.8678 24.0802 36.0622 23.42 34.92 23.42C33.7777 23.42 32.9722 24.0868 32.9722 25.0112C32.9722 25.9356 33.7777 26.6024 34.92 26.6024ZM43.4903 27.9032C41.1397 27.9032 39.7399 25.995 39.7399 22.938C39.7399 19.8941 41.1529 17.9925 43.4903 17.9925C45.821 17.9925 47.2274 19.8809 47.2274 22.9314C47.2274 25.9818 45.8342 27.9032 43.4903 27.9032ZM43.4903 26.51C44.7778 26.51 45.5107 25.1961 45.5107 22.938C45.5107 20.7062 44.7646 19.3857 43.4903 19.3857C42.2093 19.3857 41.4566 20.7129 41.4566 22.9314C41.4566 25.1895 42.1961 26.51 43.4903 26.51Z" fill="#0000FF"/>
</svg>
