<svg width="370" height="273" viewBox="0 0 370 273" fill="none" xmlns="http://www.w3.org/2000/svg">
<path d="M178.139 19.9089C175.887 19.9089 174.105 18.8079 173.104 16.696C172.574 15.585 172.303 14.2038 172.303 12.5623C172.303 7.74793 174.505 4.87533 178.179 4.87533C180.381 4.87533 182.062 5.8362 182.783 7.20744C182.943 7.4977 183.013 7.74793 183.013 8.02818C183.013 8.61872 182.593 9.06912 181.912 9.06912C181.402 9.06912 181.081 8.82891 180.681 8.31844C180.01 7.39761 179.24 6.97723 178.169 6.97723C175.987 6.97723 174.826 8.98905 174.776 12.3121V12.4622H174.826C175.396 11.131 176.837 10.1301 178.799 10.1301C181.582 10.1301 183.533 12.1319 183.533 14.8644C183.533 17.797 181.261 19.9089 178.139 19.9089ZM178.099 17.807C179.71 17.807 180.991 16.5459 180.991 14.9644C181.001 13.3029 179.79 12.1219 178.129 12.1219C176.467 12.1219 175.216 13.3029 175.216 14.9144C175.216 16.5359 176.487 17.807 178.099 17.807ZM190.85 19.9089C187.287 19.9089 185.165 17.0163 185.165 12.3821C185.165 7.76795 187.307 4.88534 190.85 4.88534C194.383 4.88534 196.515 7.74793 196.515 12.3721C196.515 16.9963 194.403 19.9089 190.85 19.9089ZM190.85 17.797C192.802 17.797 193.913 15.8052 193.913 12.3821C193.913 8.99906 192.782 6.99725 190.85 6.99725C188.908 6.99725 187.767 9.00907 187.767 12.3721C187.767 15.7952 188.888 17.797 190.85 17.797Z" fill="#0000FF" fill-opacity="0.866667"/>
<path d="M282.696 57.5166C279.383 57.5166 277.071 55.7851 277.071 53.3229C277.071 51.4512 278.402 50.0199 280.334 49.6295V49.5695C278.673 49.1291 277.592 47.898 277.592 46.3466C277.592 44.1245 279.714 42.4931 282.696 42.4931C285.679 42.4931 287.791 44.1145 287.791 46.3566C287.791 47.8879 286.72 49.109 285.058 49.5695V49.6295C286.99 50.0299 288.331 51.4612 288.331 53.3229C288.331 55.7951 285.999 57.5166 282.696 57.5166ZM282.696 48.7487C284.188 48.7487 285.249 47.8679 285.249 46.6068C285.249 45.3256 284.188 44.4448 282.696 44.4448C281.195 44.4448 280.144 45.3356 280.144 46.6068C280.144 47.8679 281.195 48.7487 282.696 48.7487ZM282.696 55.5449C284.428 55.5449 285.649 54.5339 285.649 53.1327C285.649 51.7214 284.428 50.7205 282.696 50.7205C280.965 50.7205 279.744 51.7314 279.744 53.1327C279.744 54.5339 280.965 55.5449 282.696 55.5449ZM295.688 57.5166C292.125 57.5166 290.003 54.624 290.003 49.9898C290.003 45.3757 292.145 42.4931 295.688 42.4931C299.221 42.4931 301.353 45.3557 301.353 49.9798C301.353 54.604 299.241 57.5166 295.688 57.5166ZM295.688 55.4047C297.64 55.4047 298.751 53.4129 298.751 49.9898C298.751 46.6068 297.62 44.605 295.688 44.605C293.746 44.605 292.605 46.6168 292.605 49.9798C292.605 53.4029 293.726 55.4047 295.688 55.4047Z" fill="#0000FF" fill-opacity="0.866667"/>
<path d="M336.709 147.167C335.958 147.167 335.438 146.646 335.438 145.865V135.026H335.387L333.055 136.647C332.805 136.827 332.605 136.897 332.325 136.897C331.784 136.897 331.394 136.507 331.394 135.936C331.394 135.536 331.554 135.236 331.984 134.936L334.937 132.864C335.578 132.413 335.978 132.323 336.519 132.323C337.429 132.323 337.98 132.874 337.98 133.765V145.865C337.98 146.646 337.459 147.167 336.709 147.167ZM346.848 147.257C343.285 147.257 341.163 144.364 341.163 139.73C341.163 135.116 343.305 132.233 346.848 132.233C350.381 132.233 352.513 135.096 352.513 139.72C352.513 144.344 350.401 147.257 346.848 147.257ZM346.848 145.145C348.8 145.145 349.911 143.153 349.911 139.73C349.911 136.347 348.78 134.345 346.848 134.345C344.906 134.345 343.765 136.357 343.765 139.72C343.765 143.143 344.886 145.145 346.848 145.145ZM359.92 147.257C356.356 147.257 354.235 144.364 354.235 139.73C354.235 135.116 356.376 132.233 359.92 132.233C363.453 132.233 365.585 135.096 365.585 139.72C365.585 144.344 363.473 147.257 359.92 147.257ZM359.92 145.145C361.871 145.145 362.982 143.153 362.982 139.73C362.982 136.347 361.851 134.345 359.92 134.345C357.978 134.345 356.837 136.357 356.837 139.72C356.837 143.143 357.958 145.145 359.92 145.145Z" fill="#0000FF" fill-opacity="0.866667"/>
<path d="M340.091 269.969C339.341 269.969 338.82 269.448 338.82 268.668V257.828H338.77L336.438 259.449C336.188 259.629 335.987 259.699 335.707 259.699C335.167 259.699 334.776 259.309 334.776 258.739C334.776 258.338 334.937 258.038 335.367 257.738L338.32 255.666C338.96 255.215 339.361 255.125 339.901 255.125C340.812 255.125 341.362 255.676 341.362 256.567V268.668C341.362 269.448 340.842 269.969 340.091 269.969ZM345.946 269.769C345.146 269.769 344.725 269.328 344.725 268.678C344.725 268.177 344.896 267.877 345.446 267.356L349.86 262.982C351.702 261.161 352.162 260.43 352.162 259.329C352.162 258.038 351.171 257.107 349.78 257.107C348.479 257.107 347.568 257.768 347.057 259.069C346.797 259.589 346.497 259.86 345.906 259.86C345.206 259.86 344.785 259.429 344.785 258.789C344.785 258.598 344.815 258.418 344.866 258.248C345.256 256.687 346.987 255.035 349.8 255.035C352.693 255.035 354.684 256.747 354.684 259.169C354.684 260.861 353.874 262.002 351.481 264.344L348.168 267.607V267.657H353.934C354.614 267.657 355.035 268.077 355.035 268.718C355.035 269.348 354.614 269.769 353.934 269.769H345.946ZM362.281 270.059C358.718 270.059 356.596 267.166 356.596 262.532C356.596 257.918 358.738 255.035 362.281 255.035C365.814 255.035 367.946 257.898 367.946 262.522C367.946 267.146 365.834 270.059 362.281 270.059ZM362.281 267.947C364.233 267.947 365.344 265.955 365.344 262.532C365.344 259.149 364.213 257.147 362.281 257.147C360.339 257.147 359.198 259.159 359.198 262.522C359.198 265.945 360.319 267.947 362.281 267.947Z" fill="#0000FF" fill-opacity="0.866667"/>
<path d="M9.83429 270.059C6.27107 270.059 4.14915 267.166 4.14915 262.532C4.14915 257.918 6.29109 255.035 9.83429 255.035C13.3675 255.035 15.4994 257.898 15.4994 262.522C15.4994 267.146 13.3875 270.059 9.83429 270.059ZM9.83429 267.947C11.7861 267.947 12.8971 265.955 12.8971 262.532C12.8971 259.149 11.766 257.147 9.83429 257.147C7.89253 257.147 6.7515 259.159 6.7515 262.522C6.7515 265.945 7.87252 267.947 9.83429 267.947Z" fill="#0000FF" fill-opacity="0.866667"/>
<path d="M3.08632 151.69C2.2856 151.69 1.86522 151.249 1.86522 150.599C1.86522 150.098 2.03537 149.798 2.58587 149.277L6.99986 144.903C8.84152 143.082 9.30194 142.351 9.30194 141.25C9.30194 139.959 8.31104 139.028 6.91979 139.028C5.61861 139.028 4.70779 139.689 4.19733 140.99C3.93709 141.51 3.63682 141.781 3.04629 141.781C2.34565 141.781 1.92527 141.35 1.92527 140.71C1.92527 140.519 1.9553 140.339 2.00535 140.169C2.3957 138.608 4.12726 136.956 6.9398 136.956C9.83242 136.956 11.8242 138.668 11.8242 141.09C11.8242 142.782 11.0135 143.923 8.62132 146.265L5.30833 149.528V149.578H11.0735C11.7542 149.578 12.1745 149.998 12.1745 150.639C12.1745 151.269 11.7542 151.69 11.0735 151.69H3.08632ZM19.4211 151.98C15.8579 151.98 13.7359 149.087 13.7359 144.453C13.7359 139.839 15.8779 136.956 19.4211 136.956C22.9543 136.956 25.0862 139.819 25.0862 144.443C25.0862 149.067 22.9743 151.98 19.4211 151.98ZM19.4211 149.868C21.3728 149.868 22.4838 147.876 22.4838 144.453C22.4838 141.07 21.3528 139.068 19.4211 139.068C17.4793 139.068 16.3383 141.08 16.3383 144.443C16.3383 147.866 17.4593 149.868 19.4211 149.868Z" fill="#0000FF" fill-opacity="0.866667"/>
<path d="M72.1351 57.4266C71.4245 57.4266 70.904 56.9661 70.904 56.1554V54.4539H65.2088C64.278 54.4539 63.6675 53.8633 63.6675 53.0026C63.6675 52.4421 63.8276 51.9716 64.228 51.251C65.2389 49.4393 66.8804 46.9671 68.6119 44.4248C69.5528 43.0235 70.1833 42.5832 71.2443 42.5832C72.5755 42.5832 73.3662 43.2838 73.3662 44.4849V52.332H74.3771C75.0577 52.332 75.4681 52.7724 75.4681 53.3929C75.4681 54.0235 75.0577 54.4539 74.3671 54.4539H73.3662V56.1554C73.3662 56.9661 72.8558 57.4266 72.1351 57.4266ZM70.944 52.392V44.7451H70.904C68.6119 48.0281 67.1806 50.19 66.0096 52.3219V52.392H70.944ZM82.4144 57.5166C78.8512 57.5166 76.7293 54.624 76.7293 49.9898C76.7293 45.3757 78.8712 42.4931 82.4144 42.4931C85.9476 42.4931 88.0795 45.3557 88.0795 49.9798C88.0795 54.604 85.9676 57.5166 82.4144 57.5166ZM82.4144 55.4047C84.3662 55.4047 85.4772 53.4129 85.4772 49.9898C85.4772 46.6068 84.3461 44.605 82.4144 44.605C80.4726 44.605 79.3316 46.6168 79.3316 49.9798C79.3316 53.4029 80.4526 55.4047 82.4144 55.4047Z" fill="#0000FF" fill-opacity="0.866667"/>
</svg>
