<svg width="78" height="64" viewBox="0 0 78 64" fill="none" xmlns="http://www.w3.org/2000/svg">
<path d="M55.8003 46.7348C54.0297 46.7348 52.9859 45.6538 52.9859 43.79V22.7661C52.9859 20.921 54.0297 19.8399 55.8003 19.8399H63.2556C71.3259 19.8399 76.0786 24.6486 76.0786 33.1849C76.0786 41.7211 71.3259 46.7348 63.2556 46.7348H55.8003ZM58.6147 42.0753H62.5846C67.6169 42.0753 70.3381 39.0186 70.3381 33.2035C70.3381 27.5748 67.5423 24.4808 62.5846 24.4808H58.6147V42.0753Z" fill="#287CFB"/>
<path d="M34.5874 16.3306C33.935 16.3306 33.5355 15.931 33.5355 15.2379V5.51812C33.5355 4.83316 33.935 4.42545 34.5874 4.42545H38.11C40.4502 4.42545 42.0729 6.01552 42.0729 8.36393C42.0729 10.7123 40.4013 12.3024 38.0203 12.3024H35.6393V15.2379C35.6393 15.931 35.2479 16.3306 34.5874 16.3306ZM35.6393 10.6063H37.5473C39.0559 10.6063 39.9365 9.79091 39.9365 8.36393C39.9365 6.95325 39.064 6.14599 37.5555 6.14599H35.6393V10.6063Z" fill="#565656"/>
<path d="M33.8668 36.3951C33.2145 36.3951 32.8149 35.9874 32.8149 35.3024V25.5582C32.8149 24.8732 33.2145 24.4655 33.8668 24.4655H37.4873C40.0314 24.4655 41.5562 25.8762 41.5562 28.1267C41.5562 29.6597 40.7734 30.9155 39.4117 31.4455L41.2708 34.7072C41.4502 35.0089 41.4992 35.1883 41.4992 35.4329C41.4992 35.9874 41.0425 36.3951 40.4391 36.3951C39.9417 36.3951 39.6971 36.2157 39.3709 35.6367L37.2753 31.8043H34.9187V35.3024C34.9187 35.9874 34.5192 36.3951 33.8668 36.3951ZM34.9187 30.1897H37.2916C38.6289 30.1897 39.4035 29.4477 39.4035 28.1757C39.4035 26.9362 38.58 26.1697 37.2508 26.1697H34.9187V30.1897Z" fill="#565656"/>
<path d="M32.7418 59.2733C32.1058 59.2733 31.7226 58.8819 31.7226 58.2132V48.314C31.7226 47.6372 32.1384 47.2295 32.8152 47.2295C33.28 47.2295 33.5654 47.3926 33.9079 47.8574L39.3875 55.612H39.4609V48.2896C39.4609 47.6209 39.8441 47.2295 40.472 47.2295C41.108 47.2295 41.4831 47.6209 41.4831 48.2896V58.2214C41.4831 58.89 41.0999 59.2733 40.4149 59.2733C39.9338 59.2733 39.6566 59.1183 39.3223 58.6454L33.8264 50.8826H33.753V58.2132C33.753 58.8819 33.3697 59.2733 32.7418 59.2733Z" fill="#565656"/>
<path d="M7.0426 24.7424C7.44215 24.3184 8.07003 24.3265 8.46143 24.7424L12.5711 28.9418C12.7505 29.1293 12.8647 29.3984 12.8647 29.643C12.8647 30.2057 12.4733 30.5889 11.9188 30.5889C11.6497 30.5889 11.4296 30.4992 11.2502 30.3198L9.57855 28.583L8.65713 27.5066L8.70605 29.1456V39.1264C8.70605 39.6809 8.3065 40.0886 7.75201 40.0886C7.19753 40.0886 6.79797 39.6809 6.79797 39.1264V29.1456L6.8469 27.5066L5.92547 28.583L4.25386 30.3198C4.07447 30.4992 3.85431 30.5889 3.58522 30.5889C3.03074 30.5889 2.63933 30.2057 2.63933 29.643C2.63933 29.3984 2.75349 29.1293 2.93289 28.9418L7.0426 24.7424ZM18.0018 39.7787C17.6023 40.2027 16.9744 40.1946 16.583 39.7787L12.4733 35.563C12.2939 35.3836 12.1797 35.1063 12.1797 34.8699C12.1797 34.3072 12.5793 33.9158 13.1338 33.9158C13.3947 33.9158 13.6149 34.0055 13.7943 34.1931L15.4659 35.9299L16.3955 36.9981L16.3384 35.3591V25.3866C16.3384 24.8321 16.7379 24.4244 17.2924 24.4244C17.8469 24.4244 18.2546 24.8321 18.2546 25.3866V35.3591L18.1975 36.9981L19.119 35.9299L20.7906 34.1931C20.97 34.0055 21.1901 33.9158 21.4592 33.9158C22.0137 33.9158 22.4051 34.3072 22.4051 34.8699C22.4051 35.1063 22.2909 35.3836 22.1115 35.563L18.0018 39.7787Z" fill="white"/>
</svg>
