<svg width="16" height="18" viewBox="0 0 16 18" fill="none" xmlns="http://www.w3.org/2000/svg">
<path d="M7.98676 14.0268C6.59753 14.0268 5.48183 12.9111 5.48183 11.5147C5.48183 10.5357 6.04328 9.77274 6.7343 9.34805C6.97903 9.21129 7.0942 9.00974 7.0942 8.68583V1.52378C7.0942 1.03431 7.50449 0.62402 7.99395 0.62402C8.48342 0.62402 8.89371 1.03431 8.89371 1.52378V8.68583C8.89371 9.01694 9.00888 9.22569 9.23922 9.35525C9.93023 9.77994 10.5061 10.5357 10.5061 11.5147C10.5061 12.9111 9.38318 14.0268 7.98676 14.0268ZM10.7652 2.38034C10.4845 2.38034 10.3045 2.1716 10.3045 1.92687C10.3045 1.68213 10.4845 1.47339 10.7652 1.47339H12.356C12.6367 1.47339 12.8166 1.68213 12.8166 1.92687C12.8166 2.1716 12.6367 2.38034 12.356 2.38034H10.7652ZM10.7652 4.3742C10.4845 4.3742 10.3045 4.16546 10.3045 3.92073C10.3045 3.67599 10.4845 3.46725 10.7652 3.46725H12.356C12.6367 3.46725 12.8166 3.67599 12.8166 3.92073C12.8166 4.16546 12.6367 4.3742 12.356 4.3742H10.7652ZM10.7652 6.36806C10.4845 6.36806 10.3045 6.16652 10.3045 5.91458C10.3045 5.66985 10.4845 5.46111 10.7652 5.46111H12.356C12.6367 5.46111 12.8166 5.66985 12.8166 5.91458C12.8166 6.16652 12.6367 6.36806 12.356 6.36806H10.7652ZM10.7652 8.36192C10.4845 8.36192 10.3045 8.16037 10.3045 7.90844C10.3045 7.66371 10.4845 7.45497 10.7652 7.45497H12.356C12.6367 7.45497 12.8166 7.66371 12.8166 7.90844C12.8166 8.16037 12.6367 8.36192 12.356 8.36192H10.7652ZM0.198468 13.5013C0.198468 13.1414 0.48639 12.8535 0.846293 12.8535H0.896679C1.58049 12.8535 1.99798 12.58 2.58102 12.1625C3.0129 11.853 3.55276 11.4355 4.29416 11.3923C4.35174 11.3923 4.40933 11.4067 4.45971 11.4139C4.44532 11.8674 4.5029 12.3352 4.66126 12.7167C4.62527 12.6879 4.57488 12.6736 4.5173 12.6736C3.43039 12.6736 3.21445 14.1563 0.896679 14.1563H0.846293C0.48639 14.1563 0.198468 13.8612 0.198468 13.5013ZM15.775 13.5013C15.775 13.8612 15.4871 14.1563 15.1272 14.1563H15.0768C12.7663 14.1563 12.5431 12.6879 11.4634 12.6736C11.4058 12.6736 11.3554 12.6879 11.3195 12.7167C11.485 12.3352 11.5786 11.7378 11.5354 11.4139C11.5858 11.4067 11.6362 11.3923 11.6937 11.3923C12.4208 11.4355 12.9678 11.853 13.3925 12.1625C13.9755 12.58 14.393 12.8535 15.0768 12.8535H15.1272C15.4871 12.8535 15.775 13.1414 15.775 13.5013ZM0.198468 16.7692C0.198468 16.4093 0.48639 16.1214 0.846293 16.1214H0.896679C1.58049 16.1214 1.99798 15.8479 2.58102 15.4304C3.05609 15.0849 3.67513 14.6386 4.53169 14.6386C5.40266 14.6386 6.02889 15.1065 6.50396 15.452C7.00782 15.8335 7.38212 16.1214 7.98676 16.1214C8.59859 16.1214 8.96569 15.8335 9.46955 15.452C9.94462 15.1065 10.5781 14.6386 11.449 14.6386C12.2984 14.6386 12.9246 15.0849 13.3925 15.4304C13.9755 15.8479 14.393 16.1214 15.0768 16.1214H15.1272C15.4871 16.1214 15.775 16.4093 15.775 16.7692C15.775 17.1291 15.4871 17.4171 15.1272 17.4171H15.0768C12.7375 17.4171 12.5575 15.9415 11.449 15.9415C10.3549 15.9415 10.067 17.4171 7.98676 17.4171C5.91372 17.4171 5.6258 15.9415 4.53169 15.9415C3.416 15.9415 3.23604 17.4171 0.896679 17.4171H0.846293C0.48639 17.4171 0.198468 17.1291 0.198468 16.7692Z" fill="white"/>
</svg>
