<svg width="29" height="26" viewBox="0 0 29 26" fill="none" xmlns="http://www.w3.org/2000/svg">
<path d="M13.2846 25.7768C6.2857 25.7768 0.488544 19.9797 0.488544 12.9808C0.488544 5.98196 6.2725 0.184796 13.2713 0.184796C19.7684 0.184796 25.2486 5.18963 25.9749 11.5018C25.4599 11.3169 24.9053 11.2113 24.311 11.2113C21.5247 11.2113 19.4647 13.1393 19.2666 16.0841C17.4839 17.4046 16.3482 19.5439 16.4142 21.9208C16.4142 22.5547 16.8896 22.9509 17.5499 22.6471C17.7612 22.5547 17.9725 22.4491 18.1441 22.3434V23.8356C18.1441 24.2054 18.1705 24.4299 18.2498 24.76C16.6915 25.4203 15.0145 25.7768 13.2846 25.7768ZM4.5558 7.10441C4.0672 7.79109 4.3181 8.57021 5.13684 8.57021H21.4059C22.2378 8.57021 22.4755 7.79109 21.9737 7.09121C20.1249 4.27846 16.916 2.4165 13.2581 2.4165C9.61346 2.4165 6.39135 4.27846 4.5558 7.10441ZM13.2713 16.335C14.79 16.335 16.0049 15.1201 16.0049 13.5883C16.0049 12.0828 14.79 10.8679 13.2713 10.8679C11.7527 10.8679 10.5246 12.0828 10.5246 13.5883C10.5246 15.1201 11.7527 16.335 13.2713 16.335ZM21.4587 25.5919C20.4023 25.5919 19.8476 25.0373 19.8476 23.8884V19.5043C19.8476 18.5799 20.2306 18.0253 20.9569 17.8668V16.5331C20.9569 14.2881 22.2774 12.8752 24.311 12.8752C26.3579 12.8752 27.6784 14.2881 27.6784 16.5331V17.8668C28.4047 18.0253 28.7745 18.5667 28.7745 19.5043V23.8884C28.7745 25.0373 28.2198 25.5919 27.1634 25.5919H21.4587ZM22.3566 16.3218V17.814H26.2786V16.3218C26.2786 15.0673 25.5127 14.2617 24.311 14.2617C23.1226 14.2617 22.3566 15.0673 22.3566 16.3218ZM3.10321 15.7803C3.90874 18.8176 6.06121 21.3266 8.99281 22.6471C9.65308 22.9509 10.1285 22.5547 10.1285 21.9208C10.2473 18.2762 7.5006 15.1729 3.94835 14.7503C3.31449 14.6711 2.89192 15.0144 3.10321 15.7803Z" fill="white"/>
</svg>
